<svg xmlns="http://www.w3.org/2000/svg" viewBox="0 0 140 50" width="140" height="50" fill="none">
  <!-- LG Circle Emblem -->
  <g transform="translate(10, 5)">
    <circle cx="20" cy="20" r="19" fill="#A50034"/>
    <!-- Eye dot -->
    <circle cx="14" cy="14" r="2.5" fill="#FFFFFF"/>
    <!-- L and G outline -->
    <path fill="none" stroke="#FFFFFF" stroke-width="2.6" stroke-linecap="round" stroke-linejoin="round" d="M19 14v12h7"/>
    <path fill="none" stroke="#FFFFFF" stroke-width="2.6" stroke-linecap="round" d="M22 7.5A13.5 13.5 0 1 0 33.5 20h-7"/>
  </g>
  <!-- LG Wordmark -->
  <g fill="#5E5E5E" transform="translate(62, 12)">
    <!-- L -->
    <path d="M4 2v22h14v-4.5H9.5V2H4z"/>
    <!-- G -->
    <path d="M37 13c0-6.6-4.8-11.5-12-11.5-7.5 0-12.8 5.3-12.8 12.8 0 7.5 5.2 12.8 13.2 12.8 5.8 0 10.2-2.8 11.5-7.5h-5.8c-.8 2.2-2.7 3.5-5.7 3.5-4.5 0-7.3-3.4-7.3-8.8 0-5.3 2.8-8.8 7.2-8.8 3.5 0 5.8 2 6.2 4.8H25v4.5h12V13z"/>
  </g>
</svg>
